<svg xmlns="http://www.w3.org/2000/svg" xmlns:xlink="http://www.w3.org/1999/xlink" width="93" height="93" viewBox="0 0 93 93"><defs><clipPath id="a"><rect width="93" height="93" transform="translate(0.18 0.18)" fill="#fff"/></clipPath></defs><g transform="translate(-0.18 -0.18)" opacity="0.662"><g clip-path="url(#a)"><path d="M41.665,26.9a4.439,4.439,0,0,0-2.279-.638,4.377,4.377,0,0,0-4.376,4.376V62.726a4.377,4.377,0,0,0,6.659,3.734L67.926,50.413a4.377,4.377,0,0,0,0-7.468ZM46.68,0a46.68,46.68,0,1,0,46.68,46.68A46.676,46.676,0,0,0,46.68,0m0,84.607A37.927,37.927,0,1,1,84.607,46.68,37.969,37.969,0,0,1,46.68,84.607" fill="#fff"/></g></g></svg>