<svg xmlns="http://www.w3.org/2000/svg" xmlns:xlink="http://www.w3.org/1999/xlink" width="187.665" height="202.713" viewBox="0 0 187.665 202.713"><defs><clipPath id="a"><rect width="118" height="165.3" fill="none"/></clipPath></defs><g transform="translate(-532.335 -1447.287)"><path d="M32.6,127.958l87.749,52.418,9.461-138.764Z" transform="matrix(-0.848, -0.53, 0.53, -0.848, 634.432, 1669.045)" fill="#ffde11"/><g transform="matrix(-0.848, -0.53, 0.53, -0.848, 632.404, 1650)"><g clip-path="url(#a)"><path d="M2.388,81.163l1.446,1.9,98.8-75.238L84.13,135.851,3.762,79.212,2.388,81.163l1.446,1.9-1.446-1.9L1.013,83.114,84.561,142a2.387,2.387,0,0,0,3.737-1.61L108.191,2.73A2.387,2.387,0,0,0,104.382.49L.941,79.264a2.387,2.387,0,0,0,.071,3.85Z" transform="translate(0 0)" fill="#010101"/><path d="M135.441,2.389,133.577.9c-.087.11-.135.179-.2.269-.12.171-.265.386-.451.668-.717,1.085-2.033,3.138-3.807,5.93C116.717,27.286,82.1,82.68,82.094,82.683a2.4,2.4,0,0,0-.059,2.432l31.43,56.1a2.387,2.387,0,0,0,4.445-.826L137.8,2.73A2.387,2.387,0,0,0,133.577.9l1.864,1.492-2.363-.341L114.192,132.74,86.2,82.782l-2.083,1.166,2.024,1.265.559-.893c2.734-4.374,15.052-24.073,26.871-42.911,5.909-9.419,11.695-18.622,16.094-25.584,2.2-3.481,4.053-6.4,5.4-8.506.673-1.052,1.22-1.9,1.617-2.505.2-.3.359-.545.474-.716.057-.085.1-.152.135-.2l.03-.043-.884-.672.867.694.017-.022-.884-.672.867.694-1.864-1.492-2.363-.341Z" transform="translate(-29.613 -0.001)" fill="#010101"/><path d="M2.387,81.164,2.26,83.548l52.119,2.785a2.382,2.382,0,0,0,2.148-1.112L107.849,3.661a2.387,2.387,0,0,0-3.467-3.17L.941,79.265A2.387,2.387,0,0,0,2.26,83.548l.128-2.384,1.446,1.9L96.787,12.275,53.233,81.49,2.515,78.78l-.128,2.384,1.446,1.9Z" transform="translate(0 -0.001)" fill="#010101"/></g></g></g></svg>