<svg xmlns="http://www.w3.org/2000/svg" xmlns:xlink="http://www.w3.org/1999/xlink" width="480.587" height="228.075" viewBox="0 0 480.587 228.075"><defs><clipPath id="a"><rect width="480.587" height="228.075" fill="none"/></clipPath></defs><g clip-path="url(#a)"><path d="M279.967,8.379q5.545-1.415,11.188-2.574a5.8,5.8,0,1,1-11.188,2.574" transform="translate(-99.552 -2.064)"/><path d="M335.867,5.818a5.818,5.818,0,1,1,5.818,5.818,5.817,5.817,0,0,1-5.818-5.818" transform="translate(-119.429)"/><path d="M391.845,5.818a5.819,5.819,0,1,1,5.818,5.818,5.818,5.818,0,0,1-5.818-5.818" transform="translate(-139.334)"/><path d="M447.823,7.889a5.787,5.787,0,0,1,.4-2.065q5.644,1.158,11.19,2.577a5.8,5.8,0,0,1-11.585-.512" transform="translate(-159.239 -2.071)"/><path d="M167.934,61.8a5.818,5.818,0,1,1,5.817,5.818,5.818,5.818,0,0,1-5.817-5.818" transform="translate(-59.715 -19.905)"/><path d="M223.911,61.8a5.818,5.818,0,1,1,5.818,5.818,5.818,5.818,0,0,1-5.818-5.818" transform="translate(-79.619 -19.905)"/><path d="M279.889,61.8a5.819,5.819,0,1,1,5.818,5.818,5.819,5.819,0,0,1-5.818-5.818" transform="translate(-99.524 -19.905)"/><path d="M335.867,61.8a5.818,5.818,0,1,1,5.818,5.818,5.818,5.818,0,0,1-5.818-5.818" transform="translate(-119.429 -19.905)"/><path d="M391.845,61.8a5.819,5.819,0,1,1,5.818,5.818,5.818,5.818,0,0,1-5.818-5.818" transform="translate(-139.334 -19.905)"/><path d="M447.823,61.8a5.818,5.818,0,1,1,5.818,5.818,5.818,5.818,0,0,1-5.818-5.818" transform="translate(-159.239 -19.905)"/><path d="M503.8,61.8a5.819,5.819,0,1,1,5.818,5.818A5.819,5.819,0,0,1,503.8,61.8" transform="translate(-179.144 -19.905)"/><path d="M559.779,61.8a5.818,5.818,0,1,1,5.818,5.818,5.818,5.818,0,0,1-5.818-5.818" transform="translate(-199.049 -19.905)"/><path d="M111.955,117.774a5.818,5.818,0,1,1,5.818,5.818,5.818,5.818,0,0,1-5.818-5.818" transform="translate(-39.809 -39.81)"/><path d="M167.934,117.774a5.818,5.818,0,1,1,5.817,5.818,5.817,5.817,0,0,1-5.817-5.818" transform="translate(-59.715 -39.81)"/><path d="M223.911,117.774a5.818,5.818,0,1,1,5.818,5.818,5.817,5.817,0,0,1-5.818-5.818" transform="translate(-79.619 -39.81)"/><path d="M279.889,117.774a5.819,5.819,0,1,1,5.818,5.818,5.818,5.818,0,0,1-5.818-5.818" transform="translate(-99.524 -39.81)"/><path d="M335.867,117.774a5.818,5.818,0,1,1,5.818,5.818,5.817,5.817,0,0,1-5.818-5.818" transform="translate(-119.429 -39.81)"/><path d="M391.845,117.774a5.819,5.819,0,1,1,5.818,5.818,5.818,5.818,0,0,1-5.818-5.818" transform="translate(-139.334 -39.81)"/><path d="M447.823,117.774a5.818,5.818,0,1,1,5.818,5.818,5.817,5.817,0,0,1-5.818-5.818" transform="translate(-159.239 -39.81)"/><path d="M503.8,117.774a5.819,5.819,0,1,1,5.818,5.818,5.818,5.818,0,0,1-5.818-5.818" transform="translate(-179.144 -39.81)"/><path d="M559.779,117.774a5.818,5.818,0,1,1,5.818,5.818,5.818,5.818,0,0,1-5.818-5.818" transform="translate(-199.049 -39.81)"/><path d="M615.757,117.774a5.818,5.818,0,1,1,5.819,5.818,5.818,5.818,0,0,1-5.819-5.818" transform="translate(-218.953 -39.81)"/><path d="M55.977,173.752a5.818,5.818,0,1,1,5.818,5.818,5.818,5.818,0,0,1-5.818-5.818" transform="translate(-19.905 -59.715)"/><path d="M111.955,173.752a5.818,5.818,0,1,1,5.818,5.818,5.818,5.818,0,0,1-5.818-5.818" transform="translate(-39.809 -59.715)"/><path d="M167.934,173.752a5.818,5.818,0,1,1,5.817,5.818,5.817,5.817,0,0,1-5.817-5.818" transform="translate(-59.715 -59.715)"/><path d="M223.911,173.752a5.818,5.818,0,1,1,5.818,5.818,5.817,5.817,0,0,1-5.818-5.818" transform="translate(-79.619 -59.715)"/><path d="M279.889,173.752a5.819,5.819,0,1,1,5.818,5.818,5.818,5.818,0,0,1-5.818-5.818" transform="translate(-99.524 -59.715)"/><path d="M335.867,173.752a5.818,5.818,0,1,1,5.818,5.818,5.818,5.818,0,0,1-5.818-5.818" transform="translate(-119.429 -59.715)"/><path d="M391.845,173.752a5.819,5.819,0,1,1,5.818,5.818,5.818,5.818,0,0,1-5.818-5.818" transform="translate(-139.334 -59.715)"/><path d="M447.823,173.752a5.818,5.818,0,1,1,5.818,5.818,5.818,5.818,0,0,1-5.818-5.818" transform="translate(-159.239 -59.715)"/><path d="M503.8,173.752a5.819,5.819,0,1,1,5.818,5.818,5.818,5.818,0,0,1-5.818-5.818" transform="translate(-179.144 -59.715)"/><path d="M559.779,173.752a5.818,5.818,0,1,1,5.818,5.818,5.818,5.818,0,0,1-5.818-5.818" transform="translate(-199.049 -59.715)"/><path d="M615.757,173.752a5.818,5.818,0,1,1,5.819,5.818,5.818,5.818,0,0,1-5.819-5.818" transform="translate(-218.953 -59.715)"/><path d="M671.735,173.752a5.818,5.818,0,1,1,5.818,5.818,5.818,5.818,0,0,1-5.818-5.818" transform="translate(-238.858 -59.715)"/><path d="M55.977,229.73a5.818,5.818,0,1,1,5.818,5.818,5.818,5.818,0,0,1-5.818-5.818" transform="translate(-19.905 -79.62)"/><path d="M111.955,229.73a5.818,5.818,0,1,1,5.818,5.818,5.818,5.818,0,0,1-5.818-5.818" transform="translate(-39.809 -79.62)"/><path d="M167.934,229.73a5.818,5.818,0,1,1,5.817,5.818,5.817,5.817,0,0,1-5.817-5.818" transform="translate(-59.715 -79.62)"/><path d="M223.911,229.73a5.818,5.818,0,1,1,5.818,5.818,5.818,5.818,0,0,1-5.818-5.818" transform="translate(-79.619 -79.62)"/><path d="M503.8,229.73a5.819,5.819,0,1,1,5.818,5.818,5.818,5.818,0,0,1-5.818-5.818" transform="translate(-179.144 -79.62)"/><path d="M559.779,229.73a5.818,5.818,0,1,1,5.818,5.818,5.818,5.818,0,0,1-5.818-5.818" transform="translate(-199.049 -79.62)"/><path d="M615.757,229.73a5.818,5.818,0,1,1,5.819,5.818,5.818,5.818,0,0,1-5.819-5.818" transform="translate(-218.953 -79.62)"/><path d="M671.735,229.73a5.818,5.818,0,1,1,5.818,5.818,5.818,5.818,0,0,1-5.818-5.818" transform="translate(-238.858 -79.62)"/><path d="M8.305,279.96A5.8,5.8,0,1,1,5.73,291.137Q6.886,285.5,8.305,279.96" transform="translate(-2.037 -99.549)"/><path d="M55.977,285.708a5.818,5.818,0,1,1,5.818,5.819,5.818,5.818,0,0,1-5.818-5.819" transform="translate(-19.905 -99.524)"/><path d="M111.955,285.708a5.818,5.818,0,1,1,5.818,5.819,5.818,5.818,0,0,1-5.818-5.819" transform="translate(-39.809 -99.524)"/><path d="M167.934,285.708a5.818,5.818,0,1,1,5.817,5.819,5.817,5.817,0,0,1-5.817-5.819" transform="translate(-59.715 -99.524)"/><path d="M559.779,285.708a5.818,5.818,0,1,1,5.818,5.819,5.818,5.818,0,0,1-5.818-5.819" transform="translate(-199.049 -99.524)"/><path d="M615.757,285.708a5.818,5.818,0,1,1,5.819,5.819,5.818,5.818,0,0,1-5.819-5.819" transform="translate(-218.953 -99.524)"/><path d="M671.735,285.708a5.818,5.818,0,1,1,5.818,5.819,5.818,5.818,0,0,1-5.818-5.819" transform="translate(-238.858 -99.524)"/><path d="M727.713,285.736a5.8,5.8,0,0,1,5.305-5.766q1.417,5.546,2.578,11.19a5.781,5.781,0,0,1-7.883-5.423" transform="translate(-258.763 -99.553)"/><path d="M0,341.686A5.818,5.818,0,1,1,5.818,347.5,5.817,5.817,0,0,1,0,341.686" transform="translate(0 -119.429)"/><path d="M55.977,341.686a5.818,5.818,0,1,1,5.818,5.818,5.817,5.817,0,0,1-5.818-5.818" transform="translate(-19.905 -119.429)"/><path d="M111.955,341.686a5.818,5.818,0,1,1,5.818,5.818,5.818,5.818,0,0,1-5.818-5.818" transform="translate(-39.809 -119.429)"/><path d="M167.934,341.686a5.818,5.818,0,1,1,5.817,5.818,5.817,5.817,0,0,1-5.817-5.818" transform="translate(-59.715 -119.429)"/><path d="M559.779,341.686A5.818,5.818,0,1,1,565.6,347.5a5.818,5.818,0,0,1-5.818-5.818" transform="translate(-199.049 -119.429)"/><path d="M615.757,341.686a5.818,5.818,0,1,1,5.819,5.818,5.818,5.818,0,0,1-5.819-5.818" transform="translate(-218.953 -119.429)"/><path d="M671.735,341.686a5.818,5.818,0,1,1,5.818,5.818,5.817,5.817,0,0,1-5.818-5.818" transform="translate(-238.858 -119.429)"/><path d="M727.713,341.686a5.818,5.818,0,1,1,5.818,5.818,5.818,5.818,0,0,1-5.818-5.818" transform="translate(-258.763 -119.429)"/></g></svg>