<svg xmlns="http://www.w3.org/2000/svg" xmlns:xlink="http://www.w3.org/1999/xlink" width="247.188" height="284.452" viewBox="0 0 247.188 284.452"><defs><clipPath id="a"><rect width="247.188" height="284.452" fill="none"/></clipPath></defs><g clip-path="url(#a)"><path d="M120.256,294.208l1.718-1.718L5.53,176.047a2.291,2.291,0,0,1,0-3.241L121.973,56.363a2.291,2.291,0,0,1,3.241,0L241.657,172.806a2.291,2.291,0,0,1,0,3.24L125.214,292.49a2.291,2.291,0,0,1-3.241,0l-1.718,1.718-1.718,1.718a7.151,7.151,0,0,0,10.112,0L245.093,179.482a7.148,7.148,0,0,0,0-10.112L128.65,52.927a7.15,7.15,0,0,0-10.112,0L2.094,169.37a7.151,7.151,0,0,0,0,10.113L118.538,295.926Z" transform="translate(0 -13.568)" fill="#ffde11"/><path d="M172.8,4.655A2.726,2.726,0,1,1,172.8.8a2.726,2.726,0,0,1,0,3.855" transform="translate(-44.88 0)" fill="#010101"/><path d="M213.992,45.849a2.726,2.726,0,1,1,0-3.855,2.725,2.725,0,0,1,0,3.855" transform="translate(-55.875 -10.996)" fill="#010101"/><path d="M255.186,87.044a2.726,2.726,0,1,1,0-3.855,2.727,2.727,0,0,1,0,3.855" transform="translate(-66.87 -21.991)" fill="#010101"/><path d="M135.984,41.467a2.726,2.726,0,1,1,0-3.855,2.725,2.725,0,0,1,0,3.855" transform="translate(-35.054 -9.826)" fill="#010101"/><path d="M177.179,82.662a2.726,2.726,0,1,1,0-3.855,2.726,2.726,0,0,1,0,3.855" transform="translate(-46.049 -20.821)" fill="#010101"/><path d="M218.374,123.857a2.726,2.726,0,1,1,0-3.855,2.725,2.725,0,0,1,0,3.855" transform="translate(-57.045 -31.817)" fill="#010101"/><path d="M259.569,165.051a2.726,2.726,0,1,1,0-3.855,2.726,2.726,0,0,1,0,3.855" transform="translate(-68.04 -42.812)" fill="#010101"/><path d="M140.366,119.474a2.726,2.726,0,1,1,0-3.855,2.725,2.725,0,0,1,0,3.855" transform="translate(-36.223 -30.647)" fill="#010101"/><path d="M181.562,160.67a2.726,2.726,0,1,1,0-3.855,2.726,2.726,0,0,1,0,3.855" transform="translate(-47.219 -41.643)" fill="#010101"/><path d="M222.756,201.864a2.726,2.726,0,1,1,0-3.855,2.727,2.727,0,0,1,0,3.855" transform="translate(-58.214 -52.638)" fill="#010101"/><path d="M263.952,243.059a2.726,2.726,0,1,1,0-3.855,2.726,2.726,0,0,1,0,3.855" transform="translate(-69.21 -63.634)" fill="#010101"/><path d="M144.749,197.482a2.726,2.726,0,1,1,0-3.855,2.726,2.726,0,0,1,0,3.855" transform="translate(-37.393 -51.468)" fill="#010101"/><path d="M185.944,238.677a2.726,2.726,0,1,1,0-3.855,2.726,2.726,0,0,1,0,3.855" transform="translate(-48.389 -62.464)" fill="#010101"/></g></svg>