<svg xmlns="http://www.w3.org/2000/svg" xmlns:xlink="http://www.w3.org/1999/xlink" width="129.972" height="129.972" viewBox="0 0 129.972 129.972"><defs><clipPath id="a"><rect width="129.972" height="129.972" fill="none"/></clipPath></defs><g clip-path="url(#a)"><path d="M151.744,97.865a53.879,53.879,0,1,1-53.879-53.88,53.879,53.879,0,0,1,53.879,53.88" transform="translate(-21.771 -21.771)" fill="#ffde11"/><path d="M110.594,56.714h-2.836a51.044,51.044,0,1,1-14.95-36.093,50.871,50.871,0,0,1,14.95,36.093h5.671a56.714,56.714,0,1,0-16.611,40.1,56.552,56.552,0,0,0,16.611-40.1Z" transform="translate(0 0)" fill="#010101"/><path d="M110.04,84.045H107.2a23.159,23.159,0,1,1-6.783-16.375A23.075,23.075,0,0,1,107.2,84.045h5.671a28.83,28.83,0,1,0-8.444,20.386,28.752,28.752,0,0,0,8.444-20.386Z" transform="translate(-27.33 -27.33)" fill="#010101"/></g></svg>