<svg xmlns="http://www.w3.org/2000/svg" xmlns:xlink="http://www.w3.org/1999/xlink" width="156" height="157" viewBox="0 0 156 157"><defs><clipPath id="a"><rect width="156" height="157" transform="translate(0.496 0.492)" fill="none"/></clipPath></defs><g transform="translate(-0.496 -0.492)"><g clip-path="url(#a)"><path d="M15.242,7.621A7.621,7.621,0,1,1,7.622,0a7.62,7.62,0,0,1,7.62,7.621" fill-rule="evenodd"/><path d="M15.242,63.6a7.621,7.621,0,1,1-7.62-7.621,7.619,7.619,0,0,1,7.62,7.621" transform="translate(0 -8.728)" fill-rule="evenodd"/><path d="M15.242,119.577a7.621,7.621,0,1,1-7.62-7.62,7.621,7.621,0,0,1,7.62,7.62" transform="translate(0 -17.456)" fill-rule="evenodd"/><path d="M15.242,175.556a7.621,7.621,0,1,1-7.62-7.622,7.62,7.62,0,0,1,7.62,7.622" transform="translate(0 -26.184)" fill-rule="evenodd"/><path d="M71.222,7.621A7.622,7.622,0,1,1,63.6,0a7.621,7.621,0,0,1,7.621,7.621" transform="translate(-8.728)" fill-rule="evenodd"/><path d="M71.222,63.6A7.622,7.622,0,1,1,63.6,55.979,7.62,7.62,0,0,1,71.222,63.6" transform="translate(-8.728 -8.728)" fill-rule="evenodd"/><path d="M71.222,119.577a7.622,7.622,0,1,1-7.621-7.62,7.622,7.622,0,0,1,7.621,7.62" transform="translate(-8.728 -17.456)" fill-rule="evenodd"/><path d="M71.222,175.556a7.622,7.622,0,1,1-7.621-7.622,7.622,7.622,0,0,1,7.621,7.622" transform="translate(-8.728 -26.184)" fill-rule="evenodd"/><path d="M127.2,7.621A7.621,7.621,0,1,1,119.578,0,7.621,7.621,0,0,1,127.2,7.621" transform="translate(-17.456)" fill-rule="evenodd"/><path d="M127.2,63.6a7.621,7.621,0,1,1-7.622-7.621A7.62,7.62,0,0,1,127.2,63.6" transform="translate(-17.456 -8.728)" fill-rule="evenodd"/><path d="M127.2,119.577a7.621,7.621,0,1,1-7.622-7.62,7.621,7.621,0,0,1,7.622,7.62" transform="translate(-17.456 -17.456)" fill-rule="evenodd"/><path d="M127.2,175.556a7.621,7.621,0,1,1-7.622-7.622,7.621,7.621,0,0,1,7.622,7.622" transform="translate(-17.456 -26.184)" fill-rule="evenodd"/><path d="M183.178,7.621A7.621,7.621,0,1,1,175.556,0a7.621,7.621,0,0,1,7.621,7.621" transform="translate(-26.184)" fill-rule="evenodd"/><path d="M183.178,63.6a7.621,7.621,0,1,1-7.621-7.621,7.62,7.62,0,0,1,7.621,7.621" transform="translate(-26.184 -8.728)" fill-rule="evenodd"/><path d="M183.178,119.577a7.621,7.621,0,1,1-7.621-7.62,7.622,7.622,0,0,1,7.621,7.62" transform="translate(-26.184 -17.456)" fill-rule="evenodd"/><path d="M183.178,175.556a7.621,7.621,0,1,1-7.621-7.622,7.622,7.622,0,0,1,7.621,7.622" transform="translate(-26.184 -26.184)" fill-rule="evenodd"/></g></g></svg>