<svg xmlns="http://www.w3.org/2000/svg" xmlns:xlink="http://www.w3.org/1999/xlink" width="104.907" height="168.054" viewBox="0 0 104.907 168.054"><defs><clipPath id="a"><rect width="104.907" height="168.054" fill="none"/></clipPath></defs><g clip-path="url(#a)"><path d="M10.185,5.092A5.093,5.093,0,1,1,5.093,0a5.093,5.093,0,0,1,5.093,5.092" fill-rule="evenodd"/><path d="M10.185,61.071a5.093,5.093,0,1,1-5.093-5.093,5.093,5.093,0,0,1,5.093,5.093" transform="translate(0 -24.404)" fill-rule="evenodd"/><path d="M10.185,117.048a5.093,5.093,0,1,1-5.093-5.092,5.093,5.093,0,0,1,5.093,5.092" transform="translate(0 -48.808)" fill-rule="evenodd"/><path d="M10.185,173.026a5.093,5.093,0,1,1-5.093-5.092,5.093,5.093,0,0,1,5.093,5.092" transform="translate(0 -73.212)" fill-rule="evenodd"/><path d="M10.185,229a5.093,5.093,0,1,1-5.093-5.093A5.093,5.093,0,0,1,10.185,229" transform="translate(0 -97.616)" fill-rule="evenodd"/><path d="M10.185,284.982a5.093,5.093,0,1,1-5.093-5.092,5.092,5.092,0,0,1,5.093,5.092" transform="translate(0 -122.02)" fill-rule="evenodd"/><path d="M66.163,5.092A5.092,5.092,0,1,1,61.07,0a5.092,5.092,0,0,1,5.093,5.092" transform="translate(-24.404)" fill-rule="evenodd"/><path d="M66.163,61.071a5.092,5.092,0,1,1-5.093-5.093,5.093,5.093,0,0,1,5.093,5.093" transform="translate(-24.404 -24.404)" fill-rule="evenodd"/><path d="M66.163,117.048a5.092,5.092,0,1,1-5.093-5.092,5.092,5.092,0,0,1,5.093,5.092" transform="translate(-24.404 -48.808)" fill-rule="evenodd"/><path d="M66.163,173.026a5.092,5.092,0,1,1-5.093-5.092,5.092,5.092,0,0,1,5.093,5.092" transform="translate(-24.404 -73.212)" fill-rule="evenodd"/><path d="M66.163,229a5.092,5.092,0,1,1-5.093-5.093A5.092,5.092,0,0,1,66.163,229" transform="translate(-24.404 -97.616)" fill-rule="evenodd"/><path d="M66.163,284.982a5.092,5.092,0,1,1-5.093-5.092,5.092,5.092,0,0,1,5.093,5.092" transform="translate(-24.404 -122.02)" fill-rule="evenodd"/><path d="M122.141,5.092A5.092,5.092,0,1,1,117.049,0a5.092,5.092,0,0,1,5.092,5.092" transform="translate(-48.808)" fill-rule="evenodd"/><path d="M122.141,61.071a5.092,5.092,0,1,1-5.092-5.093,5.093,5.093,0,0,1,5.092,5.093" transform="translate(-48.808 -24.404)" fill-rule="evenodd"/><path d="M122.141,117.048a5.092,5.092,0,1,1-5.092-5.092,5.092,5.092,0,0,1,5.092,5.092" transform="translate(-48.808 -48.808)" fill-rule="evenodd"/><path d="M122.141,173.026a5.092,5.092,0,1,1-5.092-5.092,5.092,5.092,0,0,1,5.092,5.092" transform="translate(-48.808 -73.212)" fill-rule="evenodd"/><path d="M122.141,229a5.092,5.092,0,1,1-5.092-5.093A5.092,5.092,0,0,1,122.141,229" transform="translate(-48.808 -97.616)" fill-rule="evenodd"/><path d="M122.141,284.982a5.092,5.092,0,1,1-5.092-5.092,5.092,5.092,0,0,1,5.092,5.092" transform="translate(-48.808 -122.02)" fill-rule="evenodd"/><path d="M178.118,5.092A5.093,5.093,0,1,1,173.026,0a5.092,5.092,0,0,1,5.093,5.092" transform="translate(-73.212)" fill-rule="evenodd"/><path d="M178.118,61.071a5.093,5.093,0,1,1-5.093-5.093,5.093,5.093,0,0,1,5.093,5.093" transform="translate(-73.212 -24.404)" fill-rule="evenodd"/><path d="M178.118,117.048a5.093,5.093,0,1,1-5.093-5.092,5.092,5.092,0,0,1,5.093,5.092" transform="translate(-73.212 -48.808)" fill-rule="evenodd"/><path d="M178.118,173.026a5.093,5.093,0,1,1-5.093-5.092,5.092,5.092,0,0,1,5.093,5.092" transform="translate(-73.212 -73.212)" fill-rule="evenodd"/><path d="M178.118,229a5.093,5.093,0,1,1-5.093-5.093A5.092,5.092,0,0,1,178.118,229" transform="translate(-73.212 -97.616)" fill-rule="evenodd"/><path d="M178.118,284.982a5.093,5.093,0,1,1-5.093-5.092,5.092,5.092,0,0,1,5.093,5.092" transform="translate(-73.212 -122.02)" fill-rule="evenodd"/></g></svg>