<svg xmlns="http://www.w3.org/2000/svg" xmlns:xlink="http://www.w3.org/1999/xlink" width="89" height="103.903" viewBox="0 0 89 103.903"><defs><clipPath id="a"><rect width="89" height="103.903" fill="none"/></clipPath></defs><path d="M54.786,78.614,31.075,54.9l-18.6,18.6L36.189,97.211,12.478,120.922l18.6,18.6,23.711-23.711L78.5,139.519l18.6-18.6L73.383,97.211,97.094,73.5,78.5,54.9Z" transform="translate(-8.094 -35.616)" fill="#010101"/><g clip-path="url(#a)"><path d="M67.334,1.315,66.4.385,43.623,23.166,20.841.385a1.315,1.315,0,0,0-1.86,0l-18.6,18.6a1.315,1.315,0,0,0,0,1.86L23.166,43.623.385,66.4a1.315,1.315,0,0,0,0,1.86l18.6,18.6a1.315,1.315,0,0,0,1.86,0L43.623,64.079,66.4,86.861a1.315,1.315,0,0,0,1.86,0l18.6-18.6a1.315,1.315,0,0,0,0-1.86L64.079,43.623,86.861,20.841a1.315,1.315,0,0,0,0-1.86L68.264.385a1.315,1.315,0,0,0-1.86,0l.93.93-.93.93L84.072,19.911,61.29,42.693a1.315,1.315,0,0,0,0,1.86L84.072,67.334,67.334,84.072,44.553,61.29a1.315,1.315,0,0,0-1.859,0L19.911,84.071,3.174,67.334,25.955,44.553a1.315,1.315,0,0,0,0-1.86L3.174,19.911,19.911,3.174,42.693,25.956a1.315,1.315,0,0,0,1.859,0L68.264,2.244l-.93-.93-.93.93Z" transform="translate(0 0)" fill="#ffde11"/></g></svg>