<svg xmlns="http://www.w3.org/2000/svg" xmlns:xlink="http://www.w3.org/1999/xlink" width="302.079" height="56.367" viewBox="0 0 302.079 56.367"><defs><clipPath id="a"><rect width="56.367" height="302.079"/></clipPath></defs><g transform="translate(302.079) rotate(90)"><g clip-path="url(#a)"><path d="M28.456,302.079H16.493c0-6.625-2.844-10.019-6.78-14.55C5.385,282.551,0,276.606,0,264.884s5.385-17.8,9.713-22.776c3.936-4.529,6.78-7.737,6.78-14.989s-2.844-10.492-6.78-15.022C5.385,207.119,0,200.937,0,189.215S5.385,171.3,9.713,166.324c3.936-4.528,6.78-7.8,6.78-15.048s-2.844-10.521-6.78-15.048C5.386,131.249,0,125.055,0,113.331s5.385-17.92,9.713-22.9c3.936-4.529,6.78-7.8,6.78-15.052s-2.844-10.523-6.78-15.051C5.385,55.35,0,49.155,0,37.431s5.385-17.66,9.713-22.639c3.936-4.528,6.78-7.726,6.78-14.792H28.456c0,10.6-5.386,17.659-9.714,22.64-3.936,4.529-6.78,7.67-6.78,14.922s2.844,10.457,6.779,14.985c4.328,4.979,9.714,11.143,9.714,22.867S23.07,93.317,18.742,98.3c-3.936,4.528-6.78,7.792-6.78,15.043s2.844,10.519,6.78,15.047c4.328,4.979,9.714,11.173,9.714,22.9s-5.386,17.919-9.714,22.9c-3.936,4.527-6.78,7.8-6.78,15.05s2.844,10.523,6.779,15.051c4.328,4.979,9.714,11.176,9.714,22.9s-5.386,17.921-9.714,22.9c-3.936,4.529-6.78,7.8-6.78,15.054s2.844,10.019,6.78,14.547c4.328,4.979,9.714,12.239,9.714,22.4"/><path d="M91.657,302.079H79.694c0-6.625-2.844-10.019-6.78-14.55-4.327-4.978-9.713-10.923-9.713-22.646s5.386-17.8,9.713-22.776c3.936-4.529,6.78-7.737,6.78-14.989s-2.844-10.492-6.78-15.022c-4.327-4.978-9.713-11.16-9.713-22.882s5.386-17.912,9.713-22.891c3.936-4.528,6.78-7.8,6.78-15.048s-2.844-10.521-6.78-15.048c-4.327-4.979-9.713-11.173-9.713-22.9s5.386-17.92,9.713-22.9c3.936-4.529,6.78-7.8,6.78-15.052s-2.844-10.523-6.78-15.051C68.587,55.35,63.2,49.155,63.2,37.431s5.386-17.66,9.713-22.639C76.85,10.264,79.694,7.066,79.694,0H91.657c0,10.6-5.386,17.659-9.714,22.64-3.936,4.529-6.78,7.67-6.78,14.922s2.844,10.457,6.779,14.985c4.328,4.979,9.714,11.143,9.714,22.867s-5.386,17.9-9.714,22.883c-3.936,4.528-6.78,7.792-6.78,15.043s2.844,10.519,6.78,15.047c4.328,4.979,9.714,11.173,9.714,22.9s-5.386,17.919-9.714,22.9c-3.936,4.527-6.78,7.8-6.78,15.05s2.844,10.523,6.779,15.051c4.328,4.979,9.714,11.176,9.714,22.9s-5.386,17.921-9.714,22.9c-3.936,4.529-6.78,7.8-6.78,15.054s2.844,10.019,6.78,14.547c4.328,4.979,9.714,12.239,9.714,22.4" transform="translate(-35.289)"/></g></g></svg>