<svg xmlns="http://www.w3.org/2000/svg" width="147.188" height="161.847" viewBox="0 0 147.188 161.847"><g transform="translate(13.458 0) rotate(34)"><path d="M4.424,7.588l152.46.207,4.424-7.59L0,0Z"/><path d="M155.108,48.874l-126.737-.2-4.424-7.592,135.585.207Z" transform="translate(-11.086 -19.017)"/><path d="M153.334,89.959,52.318,89.754l-4.424-7.59,109.863.206Z" transform="translate(-22.173 -38.038)"/><path d="M151.559,131.042l-75.293-.207-4.424-7.589,84.141.206Z" transform="translate(-33.259 -57.057)"/><path d="M149.786,172.122l-49.572-.2-4.425-7.591,58.42.205Z" transform="translate(-44.346 -76.075)"/><path d="M148.011,213.206,124.159,213l-4.424-7.589,32.7.205Z" transform="translate(-55.432 -95.095)"/><path d="M147.23,252.581l3.429-5.882-6.978-.206Z" transform="translate(-66.517 -114.114)"/></g></svg>