<svg xmlns="http://www.w3.org/2000/svg" xmlns:xlink="http://www.w3.org/1999/xlink" width="139.342" height="139.344" viewBox="0 0 139.342 139.344"><defs><clipPath id="a"><rect width="139.342" height="139.344" fill="none"/></clipPath></defs><g clip-path="url(#a)"><path d="M89.447,150.632A20.577,20.577,0,0,1,74.9,115.507,28.12,28.12,0,0,0,35.13,75.736a20.579,20.579,0,1,1-29.1-29.1A69.276,69.276,0,0,1,104,144.6a20.516,20.516,0,0,1-14.551,6.028" transform="translate(0 -11.288)" fill="#ffde11"/><path d="M108.975,127v-2.744A17.833,17.833,0,0,1,96.364,93.812a30.864,30.864,0,0,0-43.646-43.65h0a17.843,17.843,0,0,1-25.224,0h0a17.836,17.836,0,0,1,0-25.223,66.532,66.532,0,0,1,94.09,94.091,17.766,17.766,0,0,1-12.611,5.225v5.487a23.263,23.263,0,0,0,16.491-6.832A72.019,72.019,0,0,0,23.616,21.059a23.323,23.323,0,0,0,0,32.982h0a23.329,23.329,0,0,0,32.981,0h0a25.214,25.214,0,0,1,8.386-5.567,25.44,25.44,0,0,1,27.5,5.567,25.207,25.207,0,0,1,5.566,8.388,25.458,25.458,0,0,1-5.565,27.5,23.32,23.32,0,0,0,16.491,39.809Z" transform="translate(-7.183 0)" fill="#010101"/></g></svg>