<svg xmlns="http://www.w3.org/2000/svg" xmlns:xlink="http://www.w3.org/1999/xlink" width="30" height="30" viewBox="0 0 30 30"><defs><clipPath id="a"><rect width="30" height="30" transform="translate(0 0)" fill="none"/></clipPath></defs><g transform="translate(-0.011 -0.011)"><g transform="translate(0.011 0.011)" clip-path="url(#a)"><path d="M15.094,30.187h0A15.094,15.094,0,1,1,30.187,15.094,15.094,15.094,0,0,1,15.094,30.187" transform="translate(-0.094 -0.094)"/><path d="M20.66,23.719a11.047,11.047,0,0,0,4.835,4.831l1.614-1.617a.737.737,0,0,1,.745-.18,8.347,8.347,0,0,0,2.62.418.731.731,0,0,1,.733.734v2.568a.731.731,0,0,1-.733.734A12.472,12.472,0,0,1,18,18.734.734.734,0,0,1,18.734,18H21.3a.732.732,0,0,1,.734.734,8.358,8.358,0,0,0,.418,2.619.736.736,0,0,1-.18.745Z" transform="translate(-9.603 -9.603)" fill="#fff"/></g></g></svg>