<svg xmlns="http://www.w3.org/2000/svg" xmlns:xlink="http://www.w3.org/1999/xlink" width="21.431" height="21.431" viewBox="0 0 21.431 21.431"><defs><clipPath id="a"><rect width="21.431" height="21.431" fill="#ffde11"/></clipPath></defs><g transform="translate(0 0)" clip-path="url(#a)"><path d="M17.531,11.9a5.531,5.531,0,1,0,5.531,5.531A5.541,5.541,0,0,0,17.531,11.9m0,9.074a3.543,3.543,0,1,1,3.543-3.543,3.559,3.559,0,0,1-3.543,3.543" transform="translate(-6.815 -6.758)" fill="#ffde11"/><path d="M36.453,8.7A1.253,1.253,0,1,1,35.2,9.953,1.253,1.253,0,0,1,36.453,8.7" transform="translate(-19.991 -4.941)" fill="#ffde11"/><path d="M19.7,1.772A6.154,6.154,0,0,0,15.166,0h-8.9A5.919,5.919,0,0,0,0,6.265v8.858a6.217,6.217,0,0,0,1.815,4.623,6.306,6.306,0,0,0,4.494,1.685h8.815a6.38,6.38,0,0,0,4.537-1.685,6.186,6.186,0,0,0,1.772-4.58v-8.9A6.194,6.194,0,0,0,19.7,1.772M19.53,15.166a4.222,4.222,0,0,1-1.253,3.154,4.466,4.466,0,0,1-3.154,1.123H6.308A4.466,4.466,0,0,1,3.154,18.32a4.343,4.343,0,0,1-1.167-3.2V6.265A4.308,4.308,0,0,1,3.154,3.111,4.394,4.394,0,0,1,6.308,1.988h8.9a4.308,4.308,0,0,1,3.154,1.167A4.459,4.459,0,0,1,19.53,6.265Z" transform="translate(0 0)" fill="#ffde11"/></g></svg>