<svg xmlns="http://www.w3.org/2000/svg" xmlns:xlink="http://www.w3.org/1999/xlink" width="22.405" height="21.416" viewBox="0 0 22.405 21.416"><defs><clipPath id="a"><rect width="22.405" height="21.415" fill="#ffde11"/></clipPath></defs><rect width="4.801" height="14.448" transform="translate(0.285 6.965)" fill="#ffde11"/><g transform="translate(0 0)"><g clip-path="url(#a)"><path d="M2.685,4.993h-.03A2.5,2.5,0,1,1,2.716,0a2.5,2.5,0,1,1-.031,4.993" transform="translate(0 0)" fill="#ffde11"/><path d="M28.315,26.471h-4.8v-7.73c0-1.943-.7-3.266-2.434-3.266a2.627,2.627,0,0,0-2.463,1.756,3.278,3.278,0,0,0-.158,1.17v8.07h-4.8s.064-13.092,0-14.448h4.8V14.07a4.762,4.762,0,0,1,4.327-2.387c3.16,0,5.529,2.066,5.529,6.5Z" transform="translate(-5.911 -5.057)" fill="#ffde11"/></g></g></svg>