<svg xmlns="http://www.w3.org/2000/svg" xmlns:xlink="http://www.w3.org/1999/xlink" width="23" height="23" viewBox="0 0 23 23"><defs><clipPath id="a"><rect width="23" height="23" fill="#fff"/></clipPath></defs><g clip-path="url(#a)"><path d="M10.265,6.626A1.094,1.094,0,0,0,9.7,6.469,1.078,1.078,0,0,0,8.625,7.547v7.906a1.078,1.078,0,0,0,1.641.92l6.469-3.953a1.078,1.078,0,0,0,0-1.84ZM11.5,0A11.5,11.5,0,1,0,23,11.5,11.5,11.5,0,0,0,11.5,0m0,20.844A9.344,9.344,0,1,1,20.844,11.5,9.354,9.354,0,0,1,11.5,20.844" fill="#fff"/></g></svg>