<svg xmlns="http://www.w3.org/2000/svg" xmlns:xlink="http://www.w3.org/1999/xlink" width="81" height="81" viewBox="0 0 81 81"><defs><clipPath id="a"><rect width="81" height="81" transform="translate(-0.234 -0.234)" fill="none"/></clipPath></defs><g transform="translate(0.234 0.234)" clip-path="url(#a)"><path d="M70.692,0a9.844,9.844,0,0,1,9.839,9.839V70.692a9.844,9.844,0,0,1-9.839,9.839H53.946V50.188H64.421l1.993-13H53.946V28.76c0-3.555,1.742-7.021,7.326-7.021h5.669V10.675A69.146,69.146,0,0,0,56.878,9.8C46.609,9.8,39.9,16.021,39.9,27.288v9.9H28.482v13H39.9V80.531H9.839A9.844,9.844,0,0,1,0,70.692V9.839A9.844,9.844,0,0,1,9.839,0Z" transform="translate(-0.356 -0.356)" fill="#1777f2" fill-rule="evenodd"/></g></svg>