<svg xmlns="http://www.w3.org/2000/svg" xmlns:xlink="http://www.w3.org/1999/xlink" width="27.727" height="20.344" viewBox="0 0 27.727 20.344"><defs><clipPath id="a"><rect width="27.727" height="20.344" fill="#ffde11"/></clipPath></defs><g transform="translate(0 0)" clip-path="url(#a)"><path d="M14.872,6.214c-.394-1.5.308-5.251,3.667-6.042A5.151,5.151,0,0,1,23.7,1.6,8.206,8.206,0,0,0,26.961.352c-.153,1.283-2.075,2.841-2.075,2.841A11.249,11.249,0,0,0,27.727,2.4,9.83,9.83,0,0,1,25.16,4.994a14.228,14.228,0,0,1-1.283,6.643c-.117.258-.238.512-.361.749a15.166,15.166,0,0,1-9.268,7.483c-.3.087-.605.161-.9.224C7.109,21.424,0,17.012,0,17.012A18.269,18.269,0,0,0,6.206,17c1.364-.288,2.668-.765,4.015-1.093-.772.186-1.611-.486-2.206-.9a10.762,10.762,0,0,1-1.778-1.577A11.323,11.323,0,0,1,3.783,2.421c.107-.341.335-1.073.5-1.521A15.007,15.007,0,0,0,14.852,6.214Z" transform="translate(0 0)" fill="#ffde11"/></g></svg>