<svg xmlns="http://www.w3.org/2000/svg" xmlns:xlink="http://www.w3.org/1999/xlink" width="25" height="25" viewBox="0 0 25 25"><defs><clipPath id="a"><rect width="25" height="25" transform="translate(-0.177 -0.177)" fill="none"/></clipPath></defs><g transform="translate(0.177 0.177)"><g transform="translate(0 0)" clip-path="url(#a)"><path d="M24,11.7A11.8,11.8,0,0,1,6.513,21.939L0,24,2.143,17.74A11.523,11.523,0,0,1,.471,11.7,11.668,11.668,0,0,1,12.212,0,11.732,11.732,0,0,1,24,11.7M12.212,1.885a9.885,9.885,0,0,0-9.9,9.813A9.511,9.511,0,0,0,4.2,17.44L2.957,21.082l3.814-1.2A9.9,9.9,0,0,0,22.111,11.7a9.885,9.885,0,0,0-9.9-9.813M18.169,14.4c-.086-.129-.257-.171-.557-.343-.3-.129-1.714-.857-1.971-.943s-.471-.129-.643.129a8.456,8.456,0,0,1-.9,1.114.5.5,0,0,1-.643.086,7.265,7.265,0,0,1-2.314-1.414,8.185,8.185,0,0,1-1.585-1.971c-.171-.3,0-.429.129-.6a5.442,5.442,0,0,0,.429-.514c.129-.171.171-.3.3-.471a.551.551,0,0,0-.043-.514c-.086-.129-.643-1.543-.9-2.143-.257-.557-.471-.471-.643-.471S8.484,6.3,8.27,6.3a1.2,1.2,0,0,0-.771.343,3.273,3.273,0,0,0-1.028,2.4A5.2,5.2,0,0,0,7.67,12,12.029,12.029,0,0,0,12.6,16.326c2.957,1.157,2.957.771,3.471.728A2.8,2.8,0,0,0,18,15.683a2.746,2.746,0,0,0,.171-1.286" transform="translate(0.325 0.325)" fill-rule="evenodd"/></g></g></svg>