<svg xmlns="http://www.w3.org/2000/svg" xmlns:xlink="http://www.w3.org/1999/xlink" width="31" height="27" viewBox="0 0 31 27"><defs><clipPath id="a"><rect width="31" height="27" transform="translate(0 0.14)"/></clipPath></defs><g transform="translate(0 -0.14)"><g clip-path="url(#a)"><path d="M0,1.939A1.939,1.939,0,0,1,1.939,0h27.14a1.939,1.939,0,0,1,0,3.877H1.939A1.939,1.939,0,0,1,0,1.939"/><path d="M0,13.939A1.939,1.939,0,0,1,1.939,12h27.14a1.939,1.939,0,0,1,0,3.877H1.939A1.939,1.939,0,0,1,0,13.939" transform="translate(0 11.263)"/><path d="M7.939,6a1.939,1.939,0,0,0,0,3.877H23.447a1.939,1.939,0,0,0,0-3.877Z" transform="translate(5.631 5.631)"/></g></g></svg>