<svg xmlns="http://www.w3.org/2000/svg" xmlns:xlink="http://www.w3.org/1999/xlink" width="209" height="46.45" viewBox="0 0 209 46.45"><defs><clipPath id="a"><rect width="209" height="46.45" fill="#ffde11"/></clipPath></defs><g transform="translate(-675 -435)"><g transform="translate(675 435)"><g transform="translate(0 0)" clip-path="url(#a)"><path d="M90.368,27.952a3.434,3.434,0,0,1,.219-1.225,3.021,3.021,0,0,1,.621-1,2.942,2.942,0,0,1,.946-.674,2.879,2.879,0,0,1,1.2-.245,2.811,2.811,0,0,1,1.33.315,3.1,3.1,0,0,1,.994.823,3.171,3.171,0,0,1,1-.823,2.8,2.8,0,0,1,1.326-.315,2.908,2.908,0,0,1,1.2.245,2.789,2.789,0,0,1,.943.674,3.211,3.211,0,0,1,.624,1A3.341,3.341,0,0,1,101,27.952v5.09a.622.622,0,0,1-.2.469.646.646,0,0,1-.465.2.659.659,0,0,1-.66-.664v-5.09a1.938,1.938,0,0,0-.457-1.285,1.659,1.659,0,0,0-2.431,0,1.978,1.978,0,0,0-.436,1.285v5.09a.623.623,0,0,1-.2.469.649.649,0,0,1-.465.2.659.659,0,0,1-.66-.664v-5.09a1.938,1.938,0,0,0-.457-1.285,1.659,1.659,0,0,0-2.431,0,1.979,1.979,0,0,0-.437,1.285v5.09a.622.622,0,0,1-.2.469.649.649,0,0,1-.465.2.667.667,0,0,1-.664-.664Z" transform="translate(46.413 12.741)" fill="#ffde11"/><path d="M100.417,27.952a3.1,3.1,0,0,1,.925-2.227,3.3,3.3,0,0,1,1.008-.674,3.214,3.214,0,0,1,2.455,0,3.155,3.155,0,0,1,1,.674,3.346,3.346,0,0,1,.686,1,3.067,3.067,0,0,1,.253,1.223V29.3a.656.656,0,0,1-.664.664h-4.336v.595a1.693,1.693,0,0,0,.147.7,2.043,2.043,0,0,0,.4.587,1.63,1.63,0,0,0,.584.392,1.852,1.852,0,0,0,.71.142,1.817,1.817,0,0,0,1.676-1.069l.021-.053a.6.6,0,0,1,.236-.306.652.652,0,0,1,.375-.11.622.622,0,0,1,.469.2.65.65,0,0,1,.2.462.836.836,0,0,1-.089.318,3.187,3.187,0,0,1-1.134,1.362,3.031,3.031,0,0,1-1.75.527,3.093,3.093,0,0,1-1.225-.245,3.155,3.155,0,0,1-1-.674,3.337,3.337,0,0,1-.684-1.007,3.021,3.021,0,0,1-.253-1.225Zm1.329.686h3.67v-.686a1.686,1.686,0,0,0-.147-.7,2.149,2.149,0,0,0-.4-.589,1.752,1.752,0,0,0-.584-.391,1.832,1.832,0,0,0-2.405.979,1.755,1.755,0,0,0-.139.7Z" transform="translate(51.575 12.742)" fill="#ffde11"/><path d="M112.343,23.75a.661.661,0,0,1,.664-.664.667.667,0,0,1,.466.191.634.634,0,0,1,.2.474v7.692a3.047,3.047,0,0,1-.253,1.225,3.293,3.293,0,0,1-.681,1.007,3.125,3.125,0,0,1-1.008.674,3.213,3.213,0,0,1-2.455,0,3.223,3.223,0,0,1-1-.674,3.122,3.122,0,0,1-.926-2.231V28.836a2.99,2.99,0,0,1,.253-1.223,3.243,3.243,0,0,1,.681-1,3.155,3.155,0,0,1,1-.674,3.12,3.12,0,0,1,1.225-.245,2.919,2.919,0,0,1,.97.16,3.222,3.222,0,0,1,.864.436Zm-3.67,7.692a1.765,1.765,0,0,0,.142.7,1.833,1.833,0,0,0,.392.587,1.747,1.747,0,0,0,.587.392,1.819,1.819,0,0,0,.714.142,1.844,1.844,0,0,0,.708-.142,1.641,1.641,0,0,0,.589-.392,1.962,1.962,0,0,0,.391-.587,1.693,1.693,0,0,0,.147-.7V28.836a1.761,1.761,0,0,0-.138-.7,1.8,1.8,0,0,0-.979-.978,1.891,1.891,0,0,0-1.424,0,1.75,1.75,0,0,0-.587.391,2.061,2.061,0,0,0-.391.587,1.7,1.7,0,0,0-.151.7Z" transform="translate(55.134 11.858)" fill="#ffde11"/><path d="M114.473,23.634a.667.667,0,0,1,.663-.664.646.646,0,0,1,.465.2.618.618,0,0,1,.2.469v.51a.648.648,0,0,1-.191.469.658.658,0,0,1-.935,0,.63.63,0,0,1-.2-.469Zm0,2.782a.659.659,0,0,1,.663-.664.66.66,0,0,1,.465.191.627.627,0,0,1,.2.474v7.57a.643.643,0,0,1-.191.469.654.654,0,0,1-.935,0,.625.625,0,0,1-.2-.469Z" transform="translate(58.794 11.798)" fill="#ffde11"/><path d="M118.412,27.952a3.113,3.113,0,0,1,.245-1.223,3.024,3.024,0,0,1,.681-1,3.223,3.223,0,0,1,1-.674,3.086,3.086,0,0,1,1.235-.245,3.12,3.12,0,0,1,1.224.245,3.155,3.155,0,0,1,1,.674,3.243,3.243,0,0,1,.681,1,2.991,2.991,0,0,1,.253,1.223v5.021a.617.617,0,0,1-.2.469.648.648,0,0,1-.465.192.668.668,0,0,1-.428-.147.581.581,0,0,1-.216-.375,3.051,3.051,0,0,1-1.853.595,3.085,3.085,0,0,1-1.223-.244,3.125,3.125,0,0,1-1.008-.674,3.293,3.293,0,0,1-.681-1.007,2.972,2.972,0,0,1-.253-1.225Zm1.326,2.606a1.7,1.7,0,0,0,.151.7,1.962,1.962,0,0,0,.391.587,1.635,1.635,0,0,0,.587.392,1.857,1.857,0,0,0,.71.142,1.924,1.924,0,0,0,.7-.13,1.826,1.826,0,0,0,.575-.368,1.856,1.856,0,0,0,.4-.551,1.828,1.828,0,0,0,.168-.684V27.952a1.7,1.7,0,0,0-.151-.7,2.062,2.062,0,0,0-.391-.587,1.75,1.75,0,0,0-.587-.391,1.891,1.891,0,0,0-1.424,0,1.862,1.862,0,0,0-.587.391,1.919,1.919,0,0,0-.392.587,1.765,1.765,0,0,0-.142.7Z" transform="translate(60.817 12.741)" fill="#ffde11"/><path d="M35.451,19.389l-.139.207A4.925,4.925,0,1,1,31.2,11.969a4.276,4.276,0,0,1,.929.094l.555.1v-5.9l-.416-.041c-.354-.032-.717-.061-1.069-.061A10.727,10.727,0,1,0,41.467,19.984l.179-.595Z" transform="translate(10.513 3.167)" fill="#ffde11"/><path d="M6.665,30.41H.205V8.874A8.335,8.335,0,0,1,2.725,2.8,8.266,8.266,0,0,1,8.814.256a8.159,8.159,0,0,1,5.824,2.157A8.806,8.806,0,0,1,20.663.256,8.29,8.29,0,0,1,26.737,2.8a8.278,8.278,0,0,1,2.541,6.077V30.41H22.732V8.874A2.231,2.231,0,0,0,22,7.214,2.371,2.371,0,0,0,20.28,6.5a2.388,2.388,0,0,0-2.419,2.37V30.41H11.4V8.874a2.281,2.281,0,0,0-.693-1.66A2.23,2.23,0,0,0,9.038,6.5a2.417,2.417,0,0,0-2.373,2.37Z" transform="translate(0.105 0.132)" fill="#ffde11"/><path d="M76.226.256h6.46V21.8a2.021,2.021,0,0,0,.654,1.526,2.076,2.076,0,0,0,1.5.624h8.611V30.41H82.686a6.5,6.5,0,0,1-6.46-6.465Z" transform="translate(39.15 0.132)" fill="#ffde11"/><path d="M89.56.256h6.457V21.8a2.046,2.046,0,0,0,.645,1.526,2.089,2.089,0,0,0,1.5.624h8.623V30.41H96.017a6.275,6.275,0,0,1-4.548-1.892,6.2,6.2,0,0,1-1.909-4.573Z" transform="translate(45.998 0.132)" fill="#ffde11"/><rect width="6.457" height="30.154" transform="translate(155.417 0.387)" fill="#ffde11"/><path d="M115.556,30.41H109.1v-19.9a9.92,9.92,0,0,1,2.991-7.24,10.177,10.177,0,0,1,14.458,0,9.9,9.9,0,0,1,3,7.24v19.9H123.1v-19.9a3.637,3.637,0,0,0-1.126-2.672,3.629,3.629,0,0,0-2.667-1.122,3.586,3.586,0,0,0-2.652,1.122,3.705,3.705,0,0,0-1.1,2.672Z" transform="translate(56.034 0.132)" fill="#ffde11"/><path d="M145.024.256v6.46H133.73a2.716,2.716,0,0,0-2.7,2.717,2.543,2.543,0,0,0,.79,1.894,2.642,2.642,0,0,0,1.913.77l2.113.044a9.173,9.173,0,0,1,9.182,9.129,8.866,8.866,0,0,1-2.693,6.469,8.823,8.823,0,0,1-6.489,2.712l-11.281-.041V23.945h11.281a2.652,2.652,0,0,0,1.921-.775,2.652,2.652,0,0,0,0-3.789,2.664,2.664,0,0,0-1.921-.775l-2.113-.045a8.8,8.8,0,0,1-6.5-2.691,8.824,8.824,0,0,1-2.667-6.437,8.875,8.875,0,0,1,2.687-6.465A8.846,8.846,0,0,1,133.73.256Z" transform="translate(63.976 0.132)" fill="#ffde11"/><path d="M70.036.081A15.234,15.234,0,1,0,85.27,15.314,15.247,15.247,0,0,0,70.036.081m0,24.125a8.892,8.892,0,1,1,8.892-8.892,8.906,8.906,0,0,1-8.892,8.892" transform="translate(28.149 0.042)" fill="#ffde11"/><path d="M64.155,19.728H56.234a16.7,16.7,0,0,1-9.35,7.182s1.591-1.974,1.571-3.43a8.233,8.233,0,0,1,.91-16.4,7.835,7.835,0,0,1,1.644.166V.08C50.507.032,50,0,49.479,0A15.318,15.318,0,1,0,64.155,19.728" transform="translate(17.546 0)" fill="#ffde11"/><line x1="132.861" transform="translate(0.001 42.163)" fill="#00a9e7"/><rect width="132.861" height="0.624" transform="translate(0 41.851)" fill="#ffde11"/><line x1="20.602" transform="translate(187.946 42.163)" fill="#00a9e7"/><rect width="20.602" height="0.624" transform="translate(187.946 41.851)" fill="#ffde11"/></g></g></g></svg>