<svg xmlns="http://www.w3.org/2000/svg" xmlns:xlink="http://www.w3.org/1999/xlink" width="222.783" height="49.513" viewBox="0 0 222.783 49.513"><defs><clipPath id="a"><rect width="222.783" height="49.513"/></clipPath></defs><g transform="translate(-675 -435)"><g transform="translate(675 435)"><g transform="translate(0 0)" clip-path="url(#a)"><path d="M90.368,28.16a3.661,3.661,0,0,1,.234-1.305,3.22,3.22,0,0,1,.661-1.068,3.136,3.136,0,0,1,1.008-.718,3.069,3.069,0,0,1,1.283-.261,3,3,0,0,1,1.418.336,3.309,3.309,0,0,1,1.06.878,3.381,3.381,0,0,1,1.065-.878,2.982,2.982,0,0,1,1.413-.336,3.1,3.1,0,0,1,1.278.261,2.973,2.973,0,0,1,1.005.718,3.423,3.423,0,0,1,.665,1.068,3.561,3.561,0,0,1,.239,1.305v5.426a.663.663,0,0,1-.213.5.689.689,0,0,1-.5.208.7.7,0,0,1-.7-.708V28.16a2.066,2.066,0,0,0-.487-1.37,1.769,1.769,0,0,0-2.591,0,2.108,2.108,0,0,0-.465,1.37v5.426a.664.664,0,0,1-.215.5.691.691,0,0,1-.5.208.7.7,0,0,1-.7-.708V28.16a2.066,2.066,0,0,0-.487-1.37,1.769,1.769,0,0,0-2.591,0,2.109,2.109,0,0,0-.466,1.37v5.426a.663.663,0,0,1-.213.5.691.691,0,0,1-.5.208.711.711,0,0,1-.708-.708Z" transform="translate(55.434 15.218)"/><path d="M100.417,28.159a3.3,3.3,0,0,1,.986-2.373,3.515,3.515,0,0,1,1.075-.718,3.425,3.425,0,0,1,2.617,0,3.363,3.363,0,0,1,1.07.718,3.567,3.567,0,0,1,.731,1.07,3.269,3.269,0,0,1,.269,1.3V29.6a.7.7,0,0,1-.708.708h-4.622v.634a1.8,1.8,0,0,0,.157.744,2.178,2.178,0,0,0,.421.626,1.737,1.737,0,0,0,.623.418,1.974,1.974,0,0,0,.757.152,1.936,1.936,0,0,0,1.786-1.139l.023-.056a.634.634,0,0,1,.252-.326.7.7,0,0,1,.4-.118.663.663,0,0,1,.5.213.692.692,0,0,1,.208.492.892.892,0,0,1-.1.339,3.4,3.4,0,0,1-1.208,1.452,3.23,3.23,0,0,1-1.865.561,3.3,3.3,0,0,1-1.305-.261,3.363,3.363,0,0,1-1.07-.718,3.557,3.557,0,0,1-.729-1.073,3.221,3.221,0,0,1-.269-1.305Zm1.417.731h3.913v-.731a1.8,1.8,0,0,0-.156-.742,2.29,2.29,0,0,0-.421-.628,1.868,1.868,0,0,0-.623-.416,1.952,1.952,0,0,0-2.564,1.044,1.87,1.87,0,0,0-.148.742Z" transform="translate(61.598 15.218)"/><path d="M112.673,23.794a.705.705,0,0,1,.708-.708.71.71,0,0,1,.5.2.676.676,0,0,1,.213.5v8.2a3.248,3.248,0,0,1-.269,1.305,3.51,3.51,0,0,1-.726,1.073,3.331,3.331,0,0,1-1.075.718,3.425,3.425,0,0,1-2.617,0,3.436,3.436,0,0,1-1.07-.718,3.328,3.328,0,0,1-.987-2.378V29.215a3.188,3.188,0,0,1,.269-1.3,3.456,3.456,0,0,1,.726-1.07,3.363,3.363,0,0,1,1.07-.718,3.326,3.326,0,0,1,1.305-.261,3.112,3.112,0,0,1,1.034.171,3.435,3.435,0,0,1,.921.465Zm-3.913,8.2a1.881,1.881,0,0,0,.152.744,1.954,1.954,0,0,0,.418.626,1.862,1.862,0,0,0,.626.418,1.939,1.939,0,0,0,.762.152,1.966,1.966,0,0,0,.755-.152,1.749,1.749,0,0,0,.628-.418,2.091,2.091,0,0,0,.416-.626,1.8,1.8,0,0,0,.156-.744V29.215a1.877,1.877,0,0,0-.147-.744,1.915,1.915,0,0,0-1.044-1.042,2.015,2.015,0,0,0-1.518,0,1.865,1.865,0,0,0-.626.416,2.2,2.2,0,0,0-.416.626,1.808,1.808,0,0,0-.161.744Z" transform="translate(65.849 14.162)"/><path d="M114.473,23.678a.711.711,0,0,1,.707-.708.689.689,0,0,1,.5.208.658.658,0,0,1,.215.5v.544a.691.691,0,0,1-.2.5.7.7,0,0,1-1,0,.672.672,0,0,1-.216-.5Zm0,2.965a.7.7,0,0,1,.707-.708.7.7,0,0,1,.5.2.669.669,0,0,1,.215.5v8.069a.685.685,0,0,1-.2.5.7.7,0,0,1-1,0,.666.666,0,0,1-.216-.5Z" transform="translate(70.22 14.091)"/><path d="M118.412,28.16a3.318,3.318,0,0,1,.261-1.3,3.223,3.223,0,0,1,.726-1.07,3.436,3.436,0,0,1,1.07-.718,3.29,3.29,0,0,1,1.317-.261,3.326,3.326,0,0,1,1.305.261,3.363,3.363,0,0,1,1.07.718,3.457,3.457,0,0,1,.726,1.07,3.188,3.188,0,0,1,.269,1.3v5.352a.658.658,0,0,1-.213.5.691.691,0,0,1-.5.2.712.712,0,0,1-.457-.157.62.62,0,0,1-.231-.4,3.252,3.252,0,0,1-1.975.634,3.288,3.288,0,0,1-1.3-.26,3.331,3.331,0,0,1-1.075-.718,3.51,3.51,0,0,1-.726-1.073,3.168,3.168,0,0,1-.269-1.305Zm1.413,2.778a1.809,1.809,0,0,0,.161.744,2.091,2.091,0,0,0,.416.626,1.743,1.743,0,0,0,.626.418,1.98,1.98,0,0,0,.757.152,2.051,2.051,0,0,0,.744-.139,1.946,1.946,0,0,0,.613-.392,1.978,1.978,0,0,0,.421-.587,1.948,1.948,0,0,0,.179-.729V28.16a1.809,1.809,0,0,0-.161-.744,2.2,2.2,0,0,0-.416-.626,1.865,1.865,0,0,0-.626-.416,2.015,2.015,0,0,0-1.518,0,1.985,1.985,0,0,0-.626.416,2.046,2.046,0,0,0-.418.626,1.881,1.881,0,0,0-.152.744Z" transform="translate(72.636 15.218)"/><path d="M36.439,20.261l-.148.221a5.25,5.25,0,1,1-4.382-8.13,4.558,4.558,0,0,1,.991.1l.592.11V6.274l-.444-.044c-.378-.034-.765-.065-1.139-.065A11.434,11.434,0,1,0,42.852,20.895l.19-.634Z" transform="translate(12.556 3.783)"/><path d="M7.091,32.4H.205V9.443A8.884,8.884,0,0,1,2.891,2.965,8.811,8.811,0,0,1,9.382.256a8.7,8.7,0,0,1,6.208,2.3,9.387,9.387,0,0,1,6.421-2.3,8.837,8.837,0,0,1,6.475,2.709A8.824,8.824,0,0,1,31.2,9.443V32.4H24.218V9.443a2.378,2.378,0,0,0-.783-1.77A2.527,2.527,0,0,0,21.6,6.916a2.545,2.545,0,0,0-2.578,2.527V32.4H12.143V9.443a2.432,2.432,0,0,0-.739-1.77,2.377,2.377,0,0,0-1.783-.757,2.577,2.577,0,0,0-2.53,2.527Z" transform="translate(0.126 0.158)"/><path d="M76.226.256h6.886V23.217a2.154,2.154,0,0,0,.7,1.626,2.213,2.213,0,0,0,1.6.665h9.179V32.4H83.112a6.93,6.93,0,0,1-6.886-6.891Z" transform="translate(46.759 0.158)"/><path d="M89.56.256h6.883V23.217a2.181,2.181,0,0,0,.687,1.626,2.227,2.227,0,0,0,1.6.665h9.192V32.4H96.443a6.689,6.689,0,0,1-4.848-2.017,6.611,6.611,0,0,1-2.035-4.874Z" transform="translate(54.938 0.158)"/><rect width="6.883" height="32.143" transform="translate(165.666 0.413)"/><path d="M115.982,32.4H109.1V11.185a10.575,10.575,0,0,1,3.188-7.717,10.848,10.848,0,0,1,15.411,0,10.555,10.555,0,0,1,3.2,7.717V32.4h-6.878V11.185a3.877,3.877,0,0,0-1.2-2.848,3.868,3.868,0,0,0-2.843-1.2,3.822,3.822,0,0,0-2.827,1.2,3.949,3.949,0,0,0-1.17,2.848Z" transform="translate(66.924 0.158)"/><path d="M146.374.256V7.142H134.335a2.895,2.895,0,0,0-2.882,2.9,2.711,2.711,0,0,0,.842,2.018,2.817,2.817,0,0,0,2.039.821l2.252.047a9.778,9.778,0,0,1,9.787,9.731,9.451,9.451,0,0,1-2.87,6.9,9.4,9.4,0,0,1-6.917,2.891L124.562,32.4V25.508h12.025a2.826,2.826,0,0,0,2.047-.826,2.826,2.826,0,0,0,0-4.038,2.839,2.839,0,0,0-2.047-.826l-2.252-.048A9.381,9.381,0,0,1,127.4,16.9a9.406,9.406,0,0,1-2.843-6.862,9.461,9.461,0,0,1,2.864-6.891A9.429,9.429,0,0,1,134.335.256Z" transform="translate(76.409 0.158)"/><path d="M71.04.081A16.238,16.238,0,1,0,87.279,16.318,16.253,16.253,0,0,0,71.04.081m0,25.716a9.478,9.478,0,1,1,9.479-9.479A9.494,9.494,0,0,1,71.04,25.8" transform="translate(33.619 0.05)"/><path d="M66.133,21.029H57.69a17.805,17.805,0,0,1-9.966,7.656s1.7-2.1,1.675-3.656a8.776,8.776,0,0,1,.97-17.481,8.351,8.351,0,0,1,1.752.177V.086C51.585.034,51.043,0,50.489,0A16.328,16.328,0,1,0,66.133,21.029" transform="translate(20.956 0)"/><line x1="141.623" transform="translate(0.001 44.943)" fill="#00a9e7"/><rect width="141.623" height="0.665" transform="translate(0 44.611)"/><line x1="21.96" transform="translate(200.34 44.943)" fill="#00a9e7"/><rect width="21.96" height="0.665" transform="translate(200.34 44.611)"/></g></g></g></svg>